<svg version="1.0" xmlns="http://www.w3.org/2000/svg" width="64" height="64" xml:space="preserve"><path fill="#231F20" d="M49.304 63.999a3.993 3.993 0 0 1-1.938-.5l-15.367-8.498-15.366 8.498a4.005 4.005 0 0 1-4.243-.23 4.008 4.008 0 0 1-1.645-3.915l2.981-18.262L1.137 28.183a3.998 3.998 0 0 1 2.258-6.747l17.238-2.634 7.743-16.496A3.999 3.999 0 0 1 31.998.005c1.552 0 2.962.895 3.622 2.301l7.744 16.496 17.237 2.634a4 4 0 0 1 2.258 6.747L50.272 41.092l2.981 18.262a4.007 4.007 0 0 1-1.646 3.915 3.998 3.998 0 0 1-2.303.73zm-17.305-17.57c.668 0 1.332.168 1.938.5l10.092 5.579-1.981-12.119a4.002 4.002 0 0 1 1.087-3.438l8.563-8.779-11.654-1.782a3.992 3.992 0 0 1-3.017-2.255l-5.028-10.713-5.028 10.713a3.987 3.987 0 0 1-3.017 2.255L12.3 28.171l8.564 8.779a4.005 4.005 0 0 1 1.086 3.438l-1.98 12.119 10.092-5.579a4.029 4.029 0 0 1 1.937-.499z"/></svg>